<mxfile host="app.diagrams.net" modified="2023-12-12T17:17:49.866Z" agent="Mozilla/5.0 (X11; Linux x86_64) AppleWebKit/537.36 (KHTML, like Gecko) Chrome/120.0.0.0 Safari/537.36" version="22.1.7" etag="sNgmrrT8vNnnj2KG9fF5" type="github">
  <diagram name="Page-1" id="XwG99a5dgz0y2P-wGvz7">
    <mxGraphModel>
      <root>
        <mxCell id="0" />
        <mxCell id="1" parent="0" />
      </root>
    </mxGraphModel>
  </diagram>
</mxfile>
